<?xml version="1.0" standalone="no"?><!DOCTYPE svg PUBLIC "-//W3C//DTD SVG 1.1//EN" "http://www.w3.org/Graphics/SVG/1.1/DTD/svg11.dtd"><svg t="1576257596553" class="icon" viewBox="0 0 1024 1024" version="1.1" xmlns="http://www.w3.org/2000/svg" p-id="6349" xmlns:xlink="http://www.w3.org/1999/xlink" width="200" height="200"><defs><style type="text/css"></style></defs><path d="M765.34145 535.898293c0.596588-1.154289 1.561565-2.119267 2.084475-3.310396 10.239202-21.304212 6.886851-47.367821-11.244089-64.497966L345.105411 79.286788c-22.415522-21.190625-57.753355-20.182668-78.981842 2.199085-21.188578 22.415522-20.216437 57.753355 2.199085 78.979796l368.841509 348.920808L269.777795 863.482143c-22.194488 21.415752-22.864754 56.752562-1.455141 78.980819 10.949376 11.398608 25.581632 17.092283 40.21798 17.092283 13.960966 0 27.928073-5.210675 38.762839-15.637142l407.348522-392.601656c0.784876-0.778736 1.080611-1.860371 1.863441-2.679016 0.596588-0.561795 1.227967-0.971118 1.824555-1.564635C761.506099 543.755238 763.182274 539.697829 765.34145 535.898293L765.34145 535.898293zM765.34145 535.898293" p-id="6350"></path></svg>